PathFileType	4	(X/Y/Z)	C:\Users\Graham\Documents\MATLAB\MOtoNMS_v2_2\MyData\ElaboratedData\S9\22-05-17\staticElaborations\Static1\Static1\\Static1.trc
DataRate	CameraRate	NumFrames	NumMarkers	Units	OrigDataRate	DataStartFrame
100	100	4	38	mm	100	2
Frame#	Time	V_Sacral			R_ASIS			L_ASIS			R_Knee_Lat			R_Knee_Med			R_Thigh_Upper			R_Thigh_Front			R_Thigh_Rear			L_Knee_Lat			L_Knee_Med			L_Thigh_Upper			L_Thigh_Front			L_Thigh_Rear			R_Ankle_Lat			R_Ankle_Med			R_Shank_Upper			R_Shank_Front			R_Shank_Rear			L_Ankle_Lat			L_Ankle_Med			L_Shank_Upper			L_Shank_Front			L_Shank_Rear			R_Heel			R_MTP1			R_MTP5			L_Heel			L_MTP1			L_MTP5			Clavicle			R_Acromium			L_Acromium			LAJC			RAJC			LHJC			RHJC			LKJC			RKJC		
		X1	Y1	Z1	X2	Y2	Z2	X3	Y3	Z3	X4	Y4	Z4	X5	Y5	Z5	X6	Y6	Z6	X7	Y7	Z7	X8	Y8	Z8	X9	Y9	Z9	X10	Y10	Z10	X11	Y11	Z11	X12	Y12	Z12	X13	Y13	Z13	X14	Y14	Z14	X15	Y15	Z15	X16	Y16	Z16	X17	Y17	Z17	X18	Y18	Z18	X19	Y19	Z19	X20	Y20	Z20	X21	Y21	Z21	X22	Y22	Z22	X23	Y23	Z23	X24	Y24	Z24	X25	Y25	Z25	X26	Y26	Z26	X27	Y27	Z27	X28	Y28	Z28	X29	Y29	Z29	X30	Y30	Z30	X31	Y31	Z31	X32	Y32	Z32	X33	Y33	Z33	X34	Y34	Z34	X35	Y35	Z35	X36	Y36	Z36	X37	Y37	Z37	X38	Y38	Z38	

29	0.280000	-156.485220	1026.382508	-4.430031	8.000844	1000.504999	157.773945	61.838461	1007.853970	-82.856036	-96.329256	497.313084	165.840416	-100.914558	476.135992	52.170864	31.209645	722.182686	138.704603	2.514081	612.698817	94.491487	-3.895607	607.470109	171.589437	-60.441946	496.851329	-148.174225	-76.663690	473.408162	-35.463632	67.997926	717.328243	-80.891308	34.761220	606.920616	-52.419859	40.569433	607.396851	-119.522164	-144.915134	96.133787	146.133050	-126.178985	100.803000	56.016756	-60.436348	340.393549	136.278553	-94.237640	229.513795	77.839593	-99.407767	223.754187	159.521723	-136.343619	89.798153	-152.189046	-125.840343	97.880836	-58.131767	-40.718412	335.539060	-120.930341	-71.642053	220.962351	-74.213705	-80.747790	222.250862	-155.260002	-204.147722	43.326521	112.950768	35.202902	59.467311	78.484489	21.942887	51.113963	161.103932	-201.863868	44.873779	-110.799771	40.129922	55.262366	-69.088247	36.850783	49.327745	-148.759688	34.287803	1405.615195	46.906583	-101.881121	1473.602549	223.692731	-35.938695	1512.474471	-168.289131	-131.091981	93.839494	-105.160407	-135.547059	98.468393	101.074903	-10.039880	928.939382	-65.838740	-48.759028	923.654120	107.218472	-68.552818	485.129746	-91.818929	-98.621907	486.724538	109.005640	
30	0.290000	-156.507614	1026.374590	-4.450902	7.980970	1000.503409	157.745622	61.806868	1007.857566	-82.889228	-96.335294	497.313911	165.826117	-100.919605	476.134426	52.157533	31.196198	722.184553	138.673003	2.509104	612.701995	94.468984	-3.888249	607.476500	171.578131	-60.437257	496.857298	-148.197414	-76.727511	473.426791	-35.567673	67.981572	717.332840	-80.917307	34.753798	606.924850	-52.439700	40.557002	607.400036	-119.542421	-144.916566	96.134471	146.132727	-126.180315	100.801801	56.015338	-60.437851	340.394448	136.268213	-94.239796	229.512558	77.832307	-99.408275	223.755588	159.515539	-136.344115	89.796344	-152.190800	-125.839026	97.880152	-58.133328	-40.723532	335.539106	-120.939685	-71.645414	220.955621	-74.216977	-80.750801	222.250252	-155.263218	-204.146040	43.324714	112.950584	35.201298	59.466615	78.483785	21.943124	51.112713	161.103275	-201.867566	44.874896	-110.798612	40.129745	55.263264	-69.088449	36.850223	49.327061	-148.760922	34.220591	1405.623624	46.872042	-101.942922	1473.593365	223.671812	-36.062052	1512.475686	-168.324618	-131.091571	93.838248	-105.162064	-135.548441	98.468136	101.074032	-10.065724	928.938637	-65.868576	-48.776414	923.649649	107.192003	-68.582384	485.142044	-91.882543	-98.627449	486.724169	108.991825	
31	0.300000	-156.533478	1026.366445	-4.470628	7.957976	1000.503376	157.718511	61.771684	1007.862547	-82.922006	-96.340862	497.313908	165.814050	-100.925139	476.132970	52.145494	31.181360	722.187206	138.643966	2.502464	612.705315	94.448457	-3.880883	607.483915	171.568335	-60.412822	496.873307	-148.227992	-76.774914	473.447942	-35.628578	67.962488	717.338009	-80.941517	34.745061	606.930068	-52.458259	40.542388	607.404229	-119.562599	-144.919198	96.135302	146.131590	-126.181604	100.800612	56.014008	-60.440300	340.394885	136.257993	-94.241620	229.511261	77.825854	-99.408680	223.756798	159.510504	-136.344579	89.794283	-152.192663	-125.837547	97.879422	-58.134923	-40.729540	335.539077	-120.948871	-71.644758	220.949453	-74.220336	-80.754596	222.249038	-155.265811	-204.143748	43.322909	112.950423	35.199510	59.465848	78.482995	21.943260	51.111312	161.102217	-201.870545	44.875222	-110.797520	40.129264	55.264348	-69.088975	36.849360	49.326764	-148.762257	34.152740	1405.634573	46.838422	-102.004906	1473.586431	223.650511	-36.183186	1512.480468	-168.358540	-131.091063	93.836853	-105.163793	-135.550401	98.467957	101.072799	-10.094481	928.938524	-65.897517	-48.796365	923.645936	107.166963	-68.593868	485.160625	-91.928285	-98.633000	486.723439	108.979772	
32	0.310000	-156.562954	1026.358106	-4.488782	7.932990	1000.505476	157.692377	61.732558	1007.869175	-82.954658	-96.345225	497.313114	165.804250	-100.931320	476.131479	52.134882	31.166115	722.190754	138.617342	2.494243	612.708631	94.429508	-3.873380	607.492180	171.559335	-60.365666	496.900464	-148.265946	-76.809321	473.472004	-35.660014	67.940749	717.343842	-80.963789	34.734306	606.936266	-52.475302	40.525836	607.409513	-119.582358	-144.922823	96.136123	146.129525	-126.182773	100.799443	56.012792	-60.443426	340.394814	136.247985	-94.243298	229.509873	77.820269	-99.408733	223.757848	159.506499	-136.344917	89.792098	-152.194653	-125.836172	97.878843	-58.136483	-40.736316	335.539009	-120.957737	-71.642002	220.944378	-74.223316	-80.759061	222.247112	-155.267731	-204.141043	43.321251	112.950183	35.197716	59.465034	78.482132	21.943333	51.109855	161.100757	-201.872450	44.874508	-110.796599	40.128554	55.265630	-69.089875	36.848283	49.326885	-148.763469	34.084087	1405.648210	46.805188	-102.066429	1473.581409	223.629449	-36.302311	1512.488637	-168.390464	-131.090545	93.835470	-105.165568	-135.552798	98.467783	101.071159	-10.126310	928.939292	-65.925355	-48.817981	923.643453	107.143616	-68.587493	485.186234	-91.962980	-98.638272	486.722297	108.969566	
